<!DOCTYPE svg PUBLIC "-//W3C//DTD SVG 1.1//EN" "http://www.w3.org/Graphics/SVG/1.1/DTD/svg11.dtd">
<!-- Uploaded to: SVG Repo, www.svgrepo.com, Transformed by: SVG Repo Mixer Tools -->
<svg width="256px" height="256px" viewBox="-0.96 -0.96 17.92 17.92" xmlns="http://www.w3.org/2000/svg" fill="#000000" class="bi bi-layout-sidebar" stroke="#000000" stroke-width="0.144">
<g id="SVGRepo_bgCarrier" stroke-width="0"/>
<g id="SVGRepo_tracerCarrier" stroke-linecap="round" stroke-linejoin="round"/>
<g id="SVGRepo_iconCarrier"> <path d="M0 3a2 2 0 0 1 2-2h12a2 2 0 0 1 2 2v10a2 2 0 0 1-2 2H2a2 2 0 0 1-2-2V3zm5-1v12h9a1 1 0 0 0 1-1V3a1 1 0 0 0-1-1H5zM4 2H2a1 1 0 0 0-1 1v10a1 1 0 0 0 1 1h2V2z"/> </g>
</svg>